# xmcd
#
# Track frame offsets: 
#        150
#        31110
#        48422
#        68240
#        94415
#        120790
#        144182
#        167135
#        190450
#        214055
#        247850
#        274685
#
# Disc length: 3938 seconds
#
# Revision: 31
# Processed by: cddbd v1.5.2PL0 Copyright (c) Steve Scherf et al.
# Submitted via: ExactAudioCopy v1.0b3
#
DISCID=a10f600c
DTITLE=GLAY - HEAVY GAUGE
DYEAR=1999
DGENRE=JPop
TTITLE0=HEAVY GAUGE
TTITLE1=FATSOUNDS
TTITLE2=SURVIVAL
TTITLE3=ここではない、どこかへ
TTITLE4=HAPPINESS
TTITLE5=summer FM
TTITLE6=LEVEL DEVIL
TTITLE7=BE WITH YOU
TTITLE8=Winter, again
TTITLE9=Will Be King
TTITLE10=生きがい
TTITLE11=Savile Row ～サヴィル ロウ 3番地～
EXTD=Contributed by [peasant] YEAR: 1999
EXTT0=
EXTT1=
EXTT2=
EXTT3=
EXTT4=
EXTT5=
EXTT6=
EXTT7=
EXTT8=
EXTT9=
EXTT10=
EXTT11=
PLAYORDER=
